<svg width="461" height="86" viewBox="0 0 461 86" fill="none" xmlns="http://www.w3.org/2000/svg">
    <path opacity="0.4"
        d="M0.0302734 43.8242L30.5938 21.9941H30.6523L20.7588 43.8877H0.000976562L0.0302734 43.8242Z"
        fill="var(--color-primary)" />
    <path opacity="0.6"
        d="M30.6523 21.9805L30.6475 21.9932H9.87891L20.1582 0.176758L30.6523 21.9805Z"
        fill="var(--color-primary)" />
    <path opacity="0.7"
        d="M20.168 0.187498L20.1719 0.178709L40.9414 0.178711L30.6631 21.9932L20.168 0.187498Z"
        fill="var(--color-primary)" />
    <path opacity="0.8" d="M44.8148 47.1912L30.9219 22.2427H72.771L44.8148 47.1912Z"
        fill="var(--color-primary)" />
    <path opacity="0.7"
        d="M30.7549 21.9937L44.7012 46.9126L44.6523 46.9575L2.21875 85.0825L30.6641 21.9937H30.7549ZM72.1953 22.5005L72.7646 21.9937H72.7666L72.1953 22.5005Z"
        fill="var(--color-primary)" />
    <path opacity="0.5"
        d="M30.6299 22.0532L0.0595703 43.8872H0.00390625L9.89746 21.9937H30.6572L30.6299 22.0532Z"
        fill="var(--color-primary)" />
    <path opacity="0.8"
        d="M62.5977 0.24707L30.7178 22.0713H30.6523L40.9746 0.177734H62.6309L62.5977 0.24707Z"
        fill="var(--color-primary)" />
    <path opacity="0.9"
        d="M30.6895 22.0073L62.5752 0.178223H62.6367L52.3145 22.0718H30.6582L30.6895 22.0073Z"
        fill="var(--color-primary)" />
    <path d="M449.974 62.6411H440.605L450.695 12.1895H460.065L449.974 62.6411Z"
        fill="var(--color-primary)" />
    <path
        d="M436.279 62.6411H426.981L424.314 50.9652H398.944L391.665 62.6411H381.647L414.44 12.1895H423.738L436.279 62.6411ZM417.467 21.4149L403.557 43.6136H422.585L417.467 21.4149Z"
        fill="var(--color-primary)" />
    <path
        d="M359.541 24.1536H368.19L361.631 56.8031C360.19 63.8663 357.523 69.0076 353.631 72.2269C349.739 75.4942 344.478 77.1279 337.847 77.1279C330.303 77.1279 324.297 75.3741 319.829 71.8665L324.513 65.0916C326.003 66.3889 327.973 67.422 330.423 68.1907C332.922 69.0076 335.589 69.416 338.424 69.416C342.556 69.416 345.727 68.5031 347.937 66.6772C350.148 64.8513 351.613 62.0645 352.334 58.3166L352.694 56.4427C349.235 59.4218 345.03 60.9113 340.081 60.9113C336.766 60.9113 333.787 60.2626 331.144 58.9653C328.55 57.668 326.507 55.8181 325.018 53.4156C323.576 51.0131 322.856 48.2023 322.856 44.983C322.856 41.0429 323.793 37.4633 325.667 34.244C327.541 30.9766 330.135 28.406 333.451 26.5321C336.814 24.6581 340.562 23.7212 344.694 23.7212C347.721 23.7212 350.436 24.2978 352.838 25.451C355.241 26.5561 357.067 28.2378 358.316 30.4961L359.541 24.1536ZM342.099 53.2715C344.646 53.2715 346.904 52.7189 348.874 51.6138C350.892 50.4606 352.454 48.899 353.559 46.929C354.712 44.9109 355.289 42.6526 355.289 40.154C355.289 37.4152 354.4 35.277 352.622 33.7395C350.844 32.1538 348.37 31.361 345.199 31.361C342.652 31.361 340.37 31.9376 338.352 33.0908C336.334 34.1959 334.748 35.7575 333.595 37.7756C332.49 39.7456 331.937 41.9799 331.937 44.4785C331.937 47.1692 332.826 49.3074 334.604 50.893C336.43 52.4786 338.928 53.2715 342.099 53.2715Z"
        fill="currentColor" />
    <path
        d="M303.645 23.7212C307.969 23.7212 311.381 24.8503 313.879 27.1087C316.426 29.367 317.699 32.5622 317.699 36.6945C317.699 37.8477 317.531 39.3852 317.195 41.3072L312.942 62.6411H303.933L308.113 41.5234C308.305 40.5624 308.402 39.5774 308.402 38.5684C308.402 33.9076 305.831 31.5772 300.69 31.5772C297.374 31.5772 294.635 32.5142 292.473 34.3881C290.311 36.214 288.846 38.9768 288.077 42.6766L284.041 62.6411H275.031L282.671 24.1536H291.248L290.383 28.406C293.843 25.2828 298.263 23.7212 303.645 23.7212Z"
        fill="currentColor" />
    <path
        d="M265.369 62.641H256.36L264 24.1536H273.009L265.369 62.641ZM270.558 17.8111C268.973 17.8111 267.675 17.3306 266.666 16.3696C265.657 15.3606 265.153 14.1593 265.153 12.7659C265.153 11.1322 265.705 9.76283 266.81 8.6577C267.964 7.55257 269.453 7 271.279 7C272.865 7 274.162 7.48049 275.171 8.44147C276.18 9.35441 276.685 10.4836 276.685 11.8289C276.685 13.6068 276.108 15.0482 274.955 16.1534C273.85 17.2585 272.384 17.8111 270.558 17.8111Z"
        fill="currentColor" />
    <path
        d="M248.322 9.16211H257.331L246.664 62.6409H238.087L238.88 58.6768C235.421 61.6559 231.264 63.1454 226.411 63.1454C223.24 63.1454 220.357 62.4727 217.762 61.1273C215.216 59.782 213.198 57.836 211.708 55.2894C210.219 52.6947 209.474 49.6676 209.474 46.2081C209.474 41.8836 210.411 38.0157 212.285 34.6042C214.159 31.1927 216.729 28.5259 219.997 26.604C223.312 24.682 227.012 23.721 231.096 23.721C234.123 23.721 236.742 24.2255 238.952 25.2346C241.211 26.2436 242.964 27.7331 244.214 29.7032L248.322 9.16211ZM228.718 55.4335C231.216 55.4335 233.475 54.8329 235.493 53.6317C237.511 52.3824 239.072 50.6766 240.177 48.5144C241.331 46.3042 241.907 43.8056 241.907 41.0187C241.907 37.9916 241.018 35.6372 239.24 33.9555C237.463 32.2257 234.964 31.3608 231.745 31.3608C229.246 31.3608 226.988 31.9855 224.97 33.2348C222.952 34.436 221.366 36.1417 220.213 38.352C219.108 40.5142 218.555 42.9888 218.555 45.7756C218.555 48.8027 219.444 51.1812 221.222 52.9109C223 54.5926 225.498 55.4335 228.718 55.4335Z"
        fill="currentColor" />
    <path d="M199.379 62.6409H190.37L201.037 9.16211H210.046L199.379 62.6409Z" fill="currentColor" />
    <path
        d="M180.708 62.641H171.698L179.338 24.1536H188.347L180.708 62.641ZM185.897 17.8111C184.311 17.8111 183.014 17.3306 182.005 16.3696C180.996 15.3606 180.491 14.1593 180.491 12.7659C180.491 11.1322 181.044 9.76283 182.149 8.6577C183.302 7.55257 184.792 7 186.618 7C188.203 7 189.501 7.48049 190.51 8.44147C191.519 9.35441 192.023 10.4836 192.023 11.8289C192.023 13.6068 191.447 15.0482 190.293 16.1534C189.188 17.2585 187.723 17.8111 185.897 17.8111Z"
        fill="currentColor" />
    <path
        d="M160.767 24.1538H169.777L162.065 62.6412H153.488L154.353 58.3889C150.893 61.5601 146.545 63.1457 141.307 63.1457C137.079 63.1457 133.692 62.0166 131.145 59.7583C128.646 57.4519 127.397 54.2326 127.397 50.1004C127.397 48.5628 127.565 47.0252 127.902 45.4877L132.154 24.1538H141.163L136.911 45.2714C136.719 46.2324 136.623 47.2174 136.623 48.2265C136.623 50.4848 137.247 52.2146 138.497 53.4158C139.794 54.617 141.716 55.2176 144.262 55.2176C147.53 55.2176 150.245 54.3047 152.407 52.4788C154.569 50.6049 156.01 47.818 156.731 44.1183L160.767 24.1538Z"
        fill="currentColor" />
    <path
        d="M113.794 36.5504C115.956 37.3672 117.638 38.6405 118.839 40.3703C120.04 42.1001 120.641 44.2383 120.641 46.7849C120.641 51.9742 118.623 55.9142 114.587 58.605C110.55 61.2958 105.121 62.6411 98.2979 62.6411H73L83.0903 12.1895H106.37C111.608 12.1895 115.644 13.1745 118.479 15.1445C121.362 17.0665 122.803 19.8533 122.803 23.505C122.803 26.6282 121.986 29.319 120.353 31.5773C118.719 33.7876 116.533 35.4453 113.794 36.5504ZM90.9464 19.541L88.1355 33.4512H101.469C105.025 33.4512 107.836 32.7545 109.902 31.3611C111.968 29.9196 113.001 27.8295 113.001 25.0907C113.001 21.3909 110.094 19.541 104.28 19.541H90.9464ZM98.9466 55.2896C102.887 55.2896 105.914 54.5689 108.028 53.1274C110.19 51.6859 111.271 49.5717 111.271 46.7849C111.271 44.6227 110.502 43.0851 108.965 42.1722C107.475 41.2112 105.217 40.7307 102.19 40.7307H86.694L83.8111 55.2896H98.9466Z"
        fill="currentColor" />
</svg>