<svg width="480" height="86" viewBox="0 0 480 86" fill="none" xmlns="http://www.w3.org/2000/svg">
    <path opacity="0.4"
        d="M0.0302734 43.8242L30.5938 21.9941H30.6523L20.7588 43.8877H0.000976562L0.0302734 43.8242Z"
        fill="#6725F7" />
    <path opacity="0.6"
        d="M30.6523 21.9805L30.6475 21.9932H9.87891L20.1582 0.176758L30.6523 21.9805Z"
        fill="#6725F7" />
    <path opacity="0.7"
        d="M20.168 0.187498L20.1719 0.178709L40.9414 0.178711L30.6631 21.9932L20.168 0.187498Z"
        fill="#6725F7" />
    <path opacity="0.8" d="M44.8148 47.1912L30.9219 22.2427H72.771L44.8148 47.1912Z" fill="#6725F7" />
    <path opacity="0.7"
        d="M30.7549 21.9937L44.7012 46.9126L44.6523 46.9575L2.21875 85.0825L30.6641 21.9937H30.7549ZM72.1953 22.5005L72.7646 21.9937H72.7666L72.1953 22.5005Z"
        fill="#6725F7" />
    <path opacity="0.5"
        d="M30.6299 22.0532L0.0595703 43.8872H0.00390625L9.89746 21.9937H30.6572L30.6299 22.0532Z"
        fill="#6725F7" />
    <path opacity="0.8"
        d="M62.5977 0.24707L30.7178 22.0713H30.6523L40.9746 0.177734H62.6309L62.5977 0.24707Z"
        fill="#6725F7" />
    <path opacity="0.9"
        d="M30.6895 22.0073L62.5752 0.178223H62.6367L52.3145 22.0718H30.6582L30.6895 22.0073Z"
        fill="#6725F7" />
    <path d="M447.043 62.3683H438.004L447.738 13.958H456.776L447.043 62.3683Z" fill="#6725F7" />
    <path
        d="M434.053 62.3683H425.141L422.585 51.1648H398.269L391.292 62.3683H381.69L413.122 13.958H422.033L434.053 62.3683ZM416.023 22.8102L402.691 44.1107H420.928L416.023 22.8102Z"
        fill="#6725F7" />
    <path
        d="M362.519 25.2417H370.823L364.525 56.6486C363.141 63.443 360.581 68.3886 356.844 71.4854C353.107 74.6284 348.055 76.1999 341.689 76.1999C334.446 76.1999 328.679 74.5128 324.388 71.1387L328.887 64.6216C330.317 65.8696 332.208 66.8633 334.561 67.6028C336.96 68.3886 339.521 68.7815 342.242 68.7815C346.21 68.7815 349.255 67.9033 351.377 66.1469C353.499 64.3905 354.906 61.7097 355.598 58.1045L355.944 56.3019C352.623 59.1676 348.586 60.6004 343.834 60.6004C340.651 60.6004 337.79 59.9764 335.253 58.7285C332.762 57.4805 330.801 55.701 329.371 53.39C327.987 51.079 327.295 48.3751 327.295 45.2783C327.295 41.4882 328.195 38.0448 329.994 34.948C331.793 31.805 334.284 29.3322 337.468 27.5296C340.697 25.727 344.295 24.8257 348.263 24.8257C351.17 24.8257 353.776 25.3803 356.083 26.4896C358.39 27.5527 360.143 29.1704 361.342 31.3428L362.519 25.2417ZM345.772 53.2513C348.217 53.2513 350.385 52.7198 352.277 51.6567C354.214 50.5474 355.714 49.0453 356.775 47.1502C357.882 45.209 358.436 43.0366 358.436 40.6331C358.436 37.9986 357.582 35.9417 355.875 34.4627C354.168 32.9374 351.792 32.1748 348.747 32.1748C346.302 32.1748 344.111 32.7294 342.173 33.8387C340.236 34.9018 338.713 36.4039 337.606 38.3452C336.545 40.2403 336.014 42.3895 336.014 44.793C336.014 47.3813 336.868 49.4382 338.575 50.9634C340.328 52.4887 342.727 53.2513 345.772 53.2513Z"
        fill="#0E1529" />
    <path
        d="M308.082 24.8257C312.187 24.8257 315.426 25.9149 317.798 28.0933C320.216 30.2717 321.425 33.3539 321.425 37.3399C321.425 38.4523 321.265 39.9355 320.946 41.7894L316.909 62.3684H308.356L312.324 41.998C312.507 41.071 312.598 40.1208 312.598 39.1475C312.598 34.6517 310.158 32.4037 305.277 32.4037C302.129 32.4037 299.529 33.3075 297.476 35.1152C295.424 36.8764 294.032 39.5415 293.303 43.1104L289.471 62.3684H280.918L288.171 25.2428H296.313L295.492 29.3447C298.776 26.332 302.973 24.8257 308.082 24.8257Z"
        fill="#0E1529" />
    <path d="M271.688 62.3684H263.135L270.388 24.8257H278.942L271.688 62.3684Z" fill="#0E1529" />
    <path
        d="M255.381 10.9941H264.123L253.773 62.8669H245.451L246.22 59.0219C242.863 61.9115 238.831 63.3563 234.122 63.3563C231.045 63.3563 228.248 62.7038 225.73 61.3988C223.259 60.0939 221.301 58.2063 219.856 55.7362C218.411 53.2194 217.688 50.2832 217.688 46.9276C217.688 42.733 218.597 38.9812 220.415 35.6722C222.234 32.3631 224.728 29.7765 227.898 27.9122C231.115 26.048 234.705 25.1158 238.668 25.1158C241.605 25.1158 244.146 25.6052 246.29 26.5839C248.481 27.5627 250.183 29.0075 251.395 30.9183L255.381 10.9941ZM236.36 55.876C238.784 55.876 240.975 55.2934 242.933 54.1283C244.891 52.9165 246.407 51.262 247.479 49.1647C248.598 47.0208 249.157 44.5973 249.157 41.8941C249.157 38.9579 248.295 36.6742 246.57 35.043C244.845 33.3652 242.421 32.5262 239.297 32.5262C236.873 32.5262 234.681 33.1321 232.723 34.3439C230.765 35.509 229.227 37.1636 228.108 39.3075C227.036 41.4047 226.5 43.805 226.5 46.5081C226.5 49.4443 227.362 51.7513 229.087 53.4292C230.812 55.0604 233.236 55.876 236.36 55.876Z"
        fill="#0E1529" />
    <path d="M208.047 62.3683H199.905L209.546 10.9941H217.688L208.047 62.3683Z" fill="#0E1529" />
    <path
        d="M190.442 62.3682H182.121L189.177 25.4654H197.498L190.442 62.3682ZM195.235 19.384C193.77 19.384 192.572 18.9233 191.64 18.0019C190.708 17.0344 190.242 15.8826 190.242 14.5466C190.242 12.9802 190.753 11.6671 191.773 10.6075C192.838 9.54788 194.214 9.01807 195.9 9.01807C197.365 9.01807 198.563 9.47878 199.495 10.4002C200.427 11.2755 200.893 12.3582 200.893 13.6482C200.893 15.3528 200.36 16.7349 199.295 17.7946C198.275 18.8542 196.921 19.384 195.235 19.384Z"
        fill="#0E1529" />
    <path
        d="M170.546 24.8257H179.158L171.786 62.8578H163.589L164.415 58.6557C161.109 61.7895 156.952 63.3563 151.946 63.3563C147.905 63.3563 144.667 62.2405 142.233 60.0089C139.845 57.7299 138.651 54.5486 138.651 50.4653C138.651 48.9459 138.812 47.4265 139.133 45.9071L143.198 24.8257H151.809L147.744 45.6935C147.561 46.6431 147.469 47.6165 147.469 48.6136C147.469 50.8451 148.066 52.5545 149.26 53.7415C150.5 54.9285 152.337 55.522 154.771 55.522C157.894 55.522 160.489 54.6199 162.555 52.8156C164.622 50.9638 166 48.21 166.689 44.5539L170.546 24.8257Z"
        fill="#0E1529" />
    <path
        d="M125.942 37.3333C128.044 38.1171 129.678 39.3388 130.846 40.9986C132.014 42.6584 132.597 44.7101 132.597 47.1536C132.597 52.133 130.636 55.9136 126.712 58.4955C122.789 61.0774 117.511 62.3683 110.879 62.3683H86.2888L96.097 13.958H118.726C123.817 13.958 127.74 14.9032 130.496 16.7935C133.298 18.6377 134.699 21.3118 134.699 24.8157C134.699 27.8126 133.905 30.3945 132.317 32.5614C130.729 34.6822 128.604 36.2729 125.942 37.3333ZM103.733 21.0121L101.001 34.3595H113.962C117.418 34.3595 120.15 33.691 122.159 32.3539C124.167 30.9708 125.171 28.9652 125.171 26.3372C125.171 22.7871 122.345 21.0121 116.694 21.0121H103.733ZM111.51 55.3142C115.34 55.3142 118.282 54.6227 120.337 53.2395C122.439 51.8564 123.49 49.8277 123.49 47.1536C123.49 45.0789 122.742 43.6036 121.248 42.7276C119.8 41.8055 117.605 41.3444 114.662 41.3444H99.5999L96.7975 55.3142H111.51Z"
        fill="#0E1529" />
    <path
        d="M276.839 8.32662C277.09 7.89112 277.716 7.89112 277.814 8.32662L277.917 8.78763C278.489 11.3399 280.185 13.3603 282.599 14.3669L283.035 14.5487C283.447 14.7205 283.338 15.3368 282.866 15.5086L282.366 15.6904C279.596 16.6971 277.189 18.7174 275.716 21.2697L275.45 21.7308C275.199 22.1663 274.573 22.1663 274.476 21.7308L274.372 21.2697C273.8 18.7174 272.105 16.6971 269.691 15.6904L269.255 15.5086C268.843 15.3368 268.951 14.7205 269.424 14.5487L269.924 14.3669C272.693 13.3603 275.101 11.3399 276.573 8.78763L276.839 8.32662Z"
        fill="#0E1529" />
</svg>
