<svg width="465" height="93" viewBox="0 0 465 93" fill="none" xmlns="http://www.w3.org/2000/svg">
<path d="M440.628 71.1641H428.018L426.226 61.6816H407.15L401.965 71.1641H388.587L417.328 22.3535H429.811L440.628 71.1641ZM455.038 71.1641H442.364L451.326 22.3535H464L455.038 71.1641ZM412.719 51.501H424.305L421.297 35.6719L412.719 51.501Z" fill="var(--ui-primary)"/>
<path d="M366.112 33.3697H377.698L372.065 64.1901C370.742 71.4885 368.161 76.8344 364.32 80.2279C360.479 83.6214 355.422 85.3182 349.149 85.3182C342.15 85.3182 336.517 83.6911 332.25 80.4371L337.691 71.2328C339.099 72.4415 340.849 73.3944 342.94 74.0917C345.031 74.789 347.207 75.1377 349.469 75.1377C352.499 75.1377 354.782 74.4171 356.318 72.976C357.897 71.5815 358.943 69.4663 359.455 66.6307L359.711 65.3755C357.108 67.9323 353.886 69.2107 350.045 69.2107C347.271 69.2107 344.732 68.5599 342.428 67.2582C340.123 65.9566 338.288 64.0972 336.923 61.6799C335.557 59.2161 334.875 56.3572 334.875 53.1032C334.875 49.3843 335.707 45.9675 337.371 42.8529C339.035 39.7384 341.318 37.2746 344.22 35.4616C347.122 33.6487 350.344 32.7422 353.886 32.7422C356.532 32.7422 358.815 33.2768 360.735 34.346C362.698 35.4151 364.128 37.0887 365.024 39.3665L366.112 33.3697ZM353.63 58.6118C356.062 58.6118 358.025 57.775 359.519 56.1015C361.055 54.428 361.823 52.2432 361.823 49.547C361.823 47.6875 361.247 46.2 360.095 45.0843C358.943 43.9221 357.364 43.3411 355.358 43.3411C352.926 43.3411 350.941 44.201 349.405 45.921C347.869 47.5945 347.101 49.7794 347.101 52.4756C347.101 54.3351 347.677 55.8226 348.829 56.9383C349.981 58.054 351.582 58.6118 353.63 58.6118Z" fill="var(--foreground)"/>
<path d="M319.242 32.7422C323.04 32.7422 326.07 33.8579 328.332 36.0892C330.636 38.274 331.788 41.4351 331.788 45.5724C331.788 47.1064 331.639 48.6637 331.34 50.2443L327.5 71.1631H315.337L318.922 51.4994C319.093 50.7091 319.178 49.8724 319.178 48.9891C319.178 45.6421 317.578 43.9686 314.377 43.9686C312.244 43.9686 310.494 44.6892 309.128 46.1302C307.763 47.5248 306.803 49.6399 306.248 52.4756L302.791 71.1631H290.629L297.542 33.3697H309.064L308.36 37.2746C309.854 35.7405 311.539 34.6016 313.417 33.8579C315.295 33.1141 317.236 32.7422 319.242 32.7422Z" fill="var(--foreground)"/>
<path d="M284.707 71.164H272.608L279.522 33.3707H291.62L284.707 71.164ZM287.267 29.1869C285.176 29.1869 283.49 28.5593 282.21 27.3042C280.93 26.0491 280.29 24.4918 280.29 22.6323C280.29 20.4475 280.994 18.6578 282.402 17.2632C283.853 15.8221 285.752 15.1016 288.099 15.1016C290.233 15.1016 291.94 15.7059 293.22 16.9145C294.5 18.0767 295.141 19.5875 295.141 21.4469C295.141 23.7248 294.415 25.5842 292.964 27.0253C291.513 28.4664 289.614 29.1869 287.267 29.1869Z" fill="var(--foreground)"/>
<path d="M264.015 19.4258H276.177L266.703 71.165H255.181L255.885 67.4693C253.111 70.3515 249.762 71.7926 245.835 71.7926C243.275 71.7926 240.864 71.1185 238.602 69.7704C236.383 68.3758 234.591 66.3769 233.225 63.7737C231.86 61.1704 231.177 58.1024 231.177 54.5694C231.177 50.4786 232.009 46.7829 233.673 43.4824C235.38 40.1354 237.685 37.5089 240.586 35.603C243.488 33.6971 246.646 32.7441 250.06 32.7441C255.01 32.7441 258.531 34.4176 260.622 37.7646L264.015 19.4258ZM250.06 61.124C252.493 61.124 254.477 60.1477 256.013 58.1953C257.55 56.2429 258.318 53.7094 258.318 50.5948C258.318 48.3635 257.742 46.597 256.589 45.2954C255.437 43.9938 253.837 43.343 251.789 43.343C249.356 43.343 247.372 44.3192 245.835 46.2716C244.299 48.224 243.531 50.7808 243.531 53.9418C243.531 56.1732 244.107 57.9397 245.259 59.2413C246.412 60.4964 248.012 61.124 250.06 61.124Z" fill="var(--foreground)"/>
<path d="M223.849 71.165H211.687L221.16 19.4258H233.323L223.849 71.165Z" fill="var(--foreground)"/>
<path d="M205.764 71.1644H193.666L200.579 33.3711H212.678L205.764 71.1644Z" fill="var(--foreground)"/>
<path d="M210.213 7.66465C210.56 6.99134 211.526 6.99134 211.65 7.66465L211.75 8.20384C212.443 11.9525 214.761 15.0006 218.157 16.6287L218.373 16.7321C218.926 16.9974 218.788 17.8343 218.147 18.0996L217.897 18.203C213.962 19.8311 210.636 22.8793 208.703 26.6279L208.425 27.1671C208.078 27.8404 207.113 27.8404 206.989 27.1671L206.889 26.6279C206.196 22.8793 203.878 19.8311 200.481 18.203L200.266 18.0996C199.712 17.8343 199.851 16.9974 200.492 16.7321L200.742 16.6287C204.676 15.0006 208.003 11.9525 209.935 8.20384L210.213 7.66465Z" fill="#4C37FF"/>
<path d="M210.213 7.66465C210.56 6.99134 211.526 6.99134 211.65 7.66465L211.75 8.20384C212.443 11.9525 214.761 15.0006 218.157 16.6287L218.373 16.7321C218.926 16.9974 218.788 17.8343 218.147 18.0996L217.897 18.203C213.962 19.8311 210.636 22.8793 208.703 26.6279L208.425 27.1671C208.078 27.8404 207.113 27.8404 206.989 27.1671L206.889 26.6279C206.196 22.8793 203.878 19.8311 200.481 18.203L200.266 18.0996C199.712 17.8343 199.851 16.9974 200.492 16.7321L200.742 16.6287C204.676 15.0006 208.003 11.9525 209.935 8.20384L210.213 7.66465Z" fill="url(#paint0_radial_2964_5477)" fill-opacity="0.2"/>
<path d="M210.213 7.66465C210.56 6.99134 211.526 6.99134 211.65 7.66465L211.75 8.20384C212.443 11.9525 214.761 15.0006 218.157 16.6287L218.373 16.7321C218.926 16.9974 218.788 17.8343 218.147 18.0996L217.897 18.203C213.962 19.8311 210.636 22.8793 208.703 26.6279L208.425 27.1671C208.078 27.8404 207.113 27.8404 206.989 27.1671L206.889 26.6279C206.196 22.8793 203.878 19.8311 200.481 18.203L200.266 18.0996C199.712 17.8343 199.851 16.9974 200.492 16.7321L200.742 16.6287C204.676 15.0006 208.003 11.9525 209.935 8.20384L210.213 7.66465Z" fill="url(#paint1_radial_2964_5477)" fill-opacity="0.2"/>
<path d="M210.213 7.66465C210.56 6.99134 211.526 6.99134 211.65 7.66465L211.75 8.20384C212.443 11.9525 214.761 15.0006 218.157 16.6287L218.373 16.7321C218.926 16.9974 218.788 17.8343 218.147 18.0996L217.897 18.203C213.962 19.8311 210.636 22.8793 208.703 26.6279L208.425 27.1671C208.078 27.8404 207.113 27.8404 206.989 27.1671L206.889 26.6279C206.196 22.8793 203.878 19.8311 200.481 18.203L200.266 18.0996C199.712 17.8343 199.851 16.9974 200.492 16.7321L200.742 16.6287C204.676 15.0006 208.003 11.9525 209.935 8.20384L210.213 7.66465Z" fill="url(#paint2_radial_2964_5477)" fill-opacity="0.5"/>
<path d="M210.213 7.66465C210.56 6.99134 211.526 6.99134 211.65 7.66465L211.75 8.20384C212.443 11.9525 214.761 15.0006 218.157 16.6287L218.373 16.7321C218.926 16.9974 218.788 17.8343 218.147 18.0996L217.897 18.203C213.962 19.8311 210.636 22.8793 208.703 26.6279L208.425 27.1671C208.078 27.8404 207.113 27.8404 206.989 27.1671L206.889 26.6279C206.196 22.8793 203.878 19.8311 200.481 18.203L200.266 18.0996C199.712 17.8343 199.851 16.9974 200.492 16.7321L200.742 16.6287C204.676 15.0006 208.003 11.9525 209.935 8.20384L210.213 7.66465Z" fill="url(#paint3_radial_2964_5477)" fill-opacity="0.3"/>
<path d="M210.213 7.66465C210.56 6.99134 211.526 6.99134 211.65 7.66465L211.75 8.20384C212.443 11.9525 214.761 15.0006 218.157 16.6287L218.373 16.7321C218.926 16.9974 218.788 17.8343 218.147 18.0996L217.897 18.203C213.962 19.8311 210.636 22.8793 208.703 26.6279L208.425 27.1671C208.078 27.8404 207.113 27.8404 206.989 27.1671L206.889 26.6279C206.196 22.8793 203.878 19.8311 200.481 18.203L200.266 18.0996C199.712 17.8343 199.851 16.9974 200.492 16.7321L200.742 16.6287C204.676 15.0006 208.003 11.9525 209.935 8.20384L210.213 7.66465Z" fill="url(#paint4_radial_2964_5477)" fill-opacity="0.6"/>
<path d="M210.213 7.66465C210.56 6.99134 211.526 6.99134 211.65 7.66465L211.75 8.20384C212.443 11.9525 214.761 15.0006 218.157 16.6287L218.373 16.7321C218.926 16.9974 218.788 17.8343 218.147 18.0996L217.897 18.203C213.962 19.8311 210.636 22.8793 208.703 26.6279L208.425 27.1671C208.078 27.8404 207.113 27.8404 206.989 27.1671L206.889 26.6279C206.196 22.8793 203.878 19.8311 200.481 18.203L200.266 18.0996C199.712 17.8343 199.851 16.9974 200.492 16.7321L200.742 16.6287C204.676 15.0006 208.003 11.9525 209.935 8.20384L210.213 7.66465Z" fill="url(#paint5_radial_2964_5477)"/>
<path d="M182.503 33.3711H194.665L187.752 71.1644H176.23L176.934 67.2596C175.44 68.7936 173.755 69.9325 171.877 70.6763C170.042 71.4201 168.143 71.792 166.18 71.792C162.382 71.792 159.352 70.6763 157.09 68.445C154.871 66.2136 153.762 63.0293 153.762 58.8921C153.762 57.358 153.911 55.8007 154.21 54.2202L158.051 33.3711H170.213L166.628 52.9651C166.457 53.8483 166.372 54.7083 166.372 55.545C166.372 58.8456 167.93 60.4958 171.045 60.4958C173.136 60.4958 174.864 59.7985 176.23 58.4039C177.595 56.9629 178.534 54.8477 179.046 52.0586L182.503 33.3711Z" fill="var(--foreground)"/>
<path d="M143.74 45.9898C145.66 46.9195 147.132 48.2212 148.156 49.8947C149.223 51.5217 149.757 53.4509 149.757 55.6822C149.757 60.7492 147.858 64.6076 144.06 67.2573C140.262 69.8605 135.311 71.1621 129.209 71.1621H104.564L113.526 22.3516H136.186C141.222 22.3516 145.063 23.351 147.708 25.3499C150.397 27.3024 151.741 30.1148 151.741 33.7872C151.741 36.6228 151.037 39.0866 149.629 41.1785C148.22 43.2239 146.257 44.8277 143.74 45.9898ZM124.216 32.3229L122.488 41.7363H131.577C133.839 41.7363 135.546 41.2715 136.698 40.3417C137.893 39.3655 138.491 37.9709 138.491 36.158C138.491 33.6012 136.72 32.3229 133.178 32.3229H124.216ZM129.913 61.1908C132.175 61.1908 133.946 60.7027 135.226 59.7265C136.506 58.7503 137.146 57.3092 137.146 55.4033C137.146 54.0087 136.677 52.986 135.738 52.3352C134.799 51.6379 133.519 51.2893 131.897 51.2893H120.695L118.903 61.1908H129.913Z" fill="var(--foreground)"/>
<rect width="91.2892" height="91.2892" rx="26.626" fill="#090017"/>
<rect width="91.2892" height="91.2892" rx="26.626" fill="url(#paint6_radial_2964_5477)" fill-opacity="0.2"/>
<rect width="91.2892" height="91.2892" rx="26.626" fill="url(#paint7_radial_2964_5477)" fill-opacity="0.2"/>
<rect width="91.2892" height="91.2892" rx="26.626" fill="url(#paint8_radial_2964_5477)" fill-opacity="0.5"/>
<rect width="91.2892" height="91.2892" rx="26.626" fill="url(#paint9_radial_2964_5477)" fill-opacity="0.3"/>
<rect width="91.2892" height="91.2892" rx="26.626" fill="url(#paint10_radial_2964_5477)" fill-opacity="0.6"/>
<rect width="91.2892" height="91.2892" rx="26.626" fill="url(#paint11_radial_2964_5477)"/>
<path d="M45.3662 24.6914C57.3453 24.6914 67.0564 34.4018 67.0566 46.3809C67.0566 58.3601 57.3454 68.0713 45.3662 68.0713C40.0972 68.0712 35.2678 66.1916 31.5098 63.0674C46.9931 60.5447 56.8866 54.086 61.8135 50.4834C52.881 55.3118 30.0452 60.3115 29.7891 60.3115L29.1846 60.8232C25.7592 56.9879 23.6758 51.9278 23.6758 46.3809C23.676 34.4019 33.3872 24.6915 45.3662 24.6914ZM48.6738 27.1133C49.8044 30.772 48.4497 34.7572 45.3232 36.9697C48.9966 35.9184 52.9135 37.3737 55.0107 40.5684L55.334 41.0596L55.1592 40.4961C54.0289 36.8377 55.3838 32.8532 58.5098 30.6406C54.8365 31.6918 50.9195 30.2366 48.8223 27.042L48.5 26.5508L48.6738 27.1133Z" fill="white"/>
<path d="M80.8769 35.1951C80.075 31.5627 72.9323 30.4106 62.8072 31.6569C68.5071 31.3218 72.2899 32.1842 72.7611 34.3186C73.6806 38.4867 61.6242 45.9164 45.8324 50.9135C30.0407 55.9105 16.4936 56.5829 15.5737 52.415C15.2527 50.9603 16.5135 49.1101 18.9608 47.1029C13.182 50.9148 9.92758 54.6553 10.544 57.4508C11.7972 63.1314 28.5577 62.7542 47.9796 56.6085C67.4015 50.4628 82.1301 40.8758 80.8769 35.1951Z" fill="white"/>
<defs>
<radialGradient id="paint0_radial_2964_5477" cx="0" cy="0" r="1" gradientTransform="matrix(10.2633 0 -4.25527 25.7349 198.978 15.6826)" gradientUnits="userSpaceOnUse">
<stop stop-color="#BFDCFF"/>
<stop offset="1" stop-color="#BFDCFF" stop-opacity="0"/>
</radialGradient>
<radialGradient id="paint1_radial_2964_5477" cx="0" cy="0" r="1" gradientTransform="matrix(-4.45185 26.9238 -16.3279 -1.65356e-06 213.815 -9.59052)" gradientUnits="userSpaceOnUse">
<stop stop-color="#79D2FF"/>
<stop offset="1" stop-color="#79D2FF" stop-opacity="0"/>
</radialGradient>
<radialGradient id="paint2_radial_2964_5477" cx="0" cy="0" r="1" gradientTransform="matrix(-15.8332 -14.174 6.89942 -17.4068 217.848 29.2184)" gradientUnits="userSpaceOnUse">
<stop stop-color="#73FFC5"/>
<stop offset="1" stop-color="#13F094" stop-opacity="0"/>
</radialGradient>
<radialGradient id="paint3_radial_2964_5477" cx="0" cy="0" r="1" gradientTransform="matrix(-1.84962 -15.24 17.8465 -5.45836 213.25 27.6629)" gradientUnits="userSpaceOnUse">
<stop stop-color="#E5FFF4"/>
<stop offset="1" stop-color="#1DF39A" stop-opacity="0"/>
</radialGradient>
<radialGradient id="paint4_radial_2964_5477" cx="0" cy="0" r="1" gradientTransform="matrix(1.47318 -8.65885 10.6726 0.172897 196.96 29.9255)" gradientUnits="userSpaceOnUse">
<stop stop-color="#542AFF"/>
<stop offset="1" stop-color="#5126FF" stop-opacity="0"/>
</radialGradient>
<radialGradient id="paint5_radial_2964_5477" cx="0" cy="0" r="1" gradientTransform="matrix(-6.05532 -19.4537 10.0213 -12.7347 207.152 34.7483)" gradientUnits="userSpaceOnUse">
<stop stop-color="#3300FF"/>
<stop offset="1" stop-color="#3300FF" stop-opacity="0"/>
</radialGradient>
<radialGradient id="paint6_radial_2964_5477" cx="0" cy="0" r="1" gradientUnits="userSpaceOnUse" gradientTransform="translate(-0.6447 38.9415) scale(44.7017 99.5259)">
<stop stop-color="#BFDCFF"/>
<stop offset="1" stop-color="#BFDCFF" stop-opacity="0"/>
</radialGradient>
<radialGradient id="paint7_radial_2964_5477" cx="0" cy="0" r="1" gradientUnits="userSpaceOnUse" gradientTransform="translate(45.7769 -58.7983) rotate(90) scale(104.124 71.116)">
<stop stop-color="#79D2FF"/>
<stop offset="1" stop-color="#79D2FF" stop-opacity="0"/>
</radialGradient>
<radialGradient id="paint8_radial_2964_5477" cx="0" cy="0" r="1" gradientTransform="matrix(-79.1689 -54.8156 17.5143 -67.3179 91.2892 91.2892)" gradientUnits="userSpaceOnUse">
<stop stop-color="#73FFC5"/>
<stop offset="1" stop-color="#13F094" stop-opacity="0"/>
</radialGradient>
<radialGradient id="paint9_radial_2964_5477" cx="0" cy="0" r="1" gradientTransform="matrix(-19.0315 -58.9383 73.7989 -21.1093 70.1431 85.2734)" gradientUnits="userSpaceOnUse">
<stop stop-color="#E5FFF4"/>
<stop offset="1" stop-color="#1DF39A" stop-opacity="0"/>
</radialGradient>
<radialGradient id="paint10_radial_2964_5477" cx="0" cy="0" r="1" gradientTransform="matrix(0.180516 -33.4867 46.6088 0.668652 0.825213 94.0237)" gradientUnits="userSpaceOnUse">
<stop stop-color="#542AFF"/>
<stop offset="1" stop-color="#5126FF" stop-opacity="0"/>
</radialGradient>
<radialGradient id="paint11_radial_2964_5477" cx="0" cy="0" r="1" gradientTransform="matrix(-40.3839 -75.234 34.4763 -49.2495 48.6876 112.675)" gradientUnits="userSpaceOnUse">
<stop stop-color="#3300FF"/>
<stop offset="1" stop-color="#3300FF" stop-opacity="0"/>
</radialGradient>
</defs>
</svg>
