<svg width="100" height="100" viewBox="0 0 100 100" fill="none" xmlns="http://www.w3.org/2000/svg">
<rect x="0.000118812" y="4.37114e-06" width="100" height="100" rx="27.2162" fill="#090017"/>
<rect x="0.000118812" y="4.37114e-06" width="100" height="100" rx="27.2162" fill="url(#paint0_radial_2964_5656)" fill-opacity="0.2"/>
<rect x="0.000118812" y="4.37114e-06" width="100" height="100" rx="27.2162" fill="url(#paint1_radial_2964_5656)" fill-opacity="0.2"/>
<rect x="0.000118812" y="4.37114e-06" width="100" height="100" rx="27.2162" fill="url(#paint2_radial_2964_5656)" fill-opacity="0.5"/>
<rect x="0.000118812" y="4.37114e-06" width="100" height="100" rx="27.2162" fill="url(#paint3_radial_2964_5656)" fill-opacity="0.3"/>
<rect x="0.000118812" y="4.37114e-06" width="100" height="100" rx="27.2162" fill="url(#paint4_radial_2964_5656)" fill-opacity="0.6"/>
<rect x="0.000118812" y="4.37114e-06" width="100" height="100" rx="27.2162" fill="url(#paint5_radial_2964_5656)"/>
<path d="M49.6963 27.0498C62.8184 27.05 73.4561 37.6884 73.4561 50.8106C73.4559 63.9325 62.8183 74.5701 49.6963 74.5703C43.9238 74.5703 38.6325 72.5109 34.5156 69.0879C51.4776 66.3248 62.3157 59.2493 67.7129 55.3027C57.9281 60.5919 32.9134 66.0693 32.6328 66.0693L31.9697 66.6299C28.2178 62.4287 25.9356 56.8864 25.9355 50.8106C25.9355 37.6883 36.574 27.0498 49.6963 27.0498ZM53.3193 29.7022C54.5578 33.71 53.0742 38.0753 49.6494 40.499C53.6732 39.3474 57.9633 40.941 60.2607 44.4404L60.6152 44.9795L60.4238 44.3623C59.1854 40.3545 60.6699 35.9891 64.0947 33.5654C60.0709 34.7171 55.7798 33.1236 53.4824 29.624L53.1289 29.085L53.3193 29.7022Z" fill="white"/>
<path d="M88.5936 38.5565C87.7141 34.5701 79.8631 33.3064 68.7405 34.6833C75.0176 34.3067 79.1856 35.2502 79.7031 37.5958C80.7102 42.1617 67.5035 50.3005 50.2048 55.7743C32.9066 61.248 18.0673 61.9841 17.0591 57.4188C16.7078 55.8268 18.0851 53.8006 20.7612 51.6042C14.4356 55.7782 10.8737 59.874 11.549 62.9351C12.9219 69.1578 31.2819 68.7449 52.557 62.0128C73.8314 55.2809 89.9651 44.7792 88.5936 38.5565Z" fill="white"/>
<defs>
<radialGradient id="paint0_radial_2964_5656" cx="0" cy="0" r="1" gradientUnits="userSpaceOnUse" gradientTransform="translate(-0.706098 42.6573) scale(48.9671 109.023)">
<stop stop-color="#BFDCFF"/>
<stop offset="1" stop-color="#BFDCFF" stop-opacity="0"/>
</radialGradient>
<radialGradient id="paint1_radial_2964_5656" cx="0" cy="0" r="1" gradientUnits="userSpaceOnUse" gradientTransform="translate(50.1451 -64.4089) rotate(90) scale(114.059 77.9019)">
<stop stop-color="#79D2FF"/>
<stop offset="1" stop-color="#79D2FF" stop-opacity="0"/>
</radialGradient>
<radialGradient id="paint2_radial_2964_5656" cx="0" cy="0" r="1" gradientTransform="matrix(-86.7232 -60.0461 19.1855 -73.7414 100 100)" gradientUnits="userSpaceOnUse">
<stop stop-color="#73FFC5"/>
<stop offset="1" stop-color="#13F094" stop-opacity="0"/>
</radialGradient>
<radialGradient id="paint3_radial_2964_5656" cx="0" cy="0" r="1" gradientTransform="matrix(-20.8475 -64.5622 80.8407 -23.1236 76.8363 93.4101)" gradientUnits="userSpaceOnUse">
<stop stop-color="#E5FFF4"/>
<stop offset="1" stop-color="#1DF39A" stop-opacity="0"/>
</radialGradient>
<radialGradient id="paint4_radial_2964_5656" cx="0" cy="0" r="1" gradientTransform="matrix(0.197741 -36.682 51.0562 0.732454 0.904073 102.995)" gradientUnits="userSpaceOnUse">
<stop stop-color="#542AFF"/>
<stop offset="1" stop-color="#5126FF" stop-opacity="0"/>
</radialGradient>
<radialGradient id="paint5_radial_2964_5656" cx="0" cy="0" r="1" gradientTransform="matrix(-44.2373 -82.4128 37.766 -53.9488 53.3335 123.427)" gradientUnits="userSpaceOnUse">
<stop stop-color="#3300FF"/>
<stop offset="1" stop-color="#3300FF" stop-opacity="0"/>
</radialGradient>
</defs>
</svg>
