<svg width="125" height="126" viewBox="0 0 125 126" fill="none" xmlns="http://www.w3.org/2000/svg">
<path opacity="0.4" d="M18.4448 67.7223L56.6235 40.4537H56.6958L44.3374 67.8014H18.4087L18.4448 67.7223Z" fill="white"/>
<path opacity="0.6" d="M56.6963 40.4384L56.6904 40.453H30.748L43.5869 13.202L56.6963 40.4384Z" fill="white"/>
<path opacity="0.7" d="M43.6001 13.2166L43.605 13.2039L69.5483 13.2039L56.7095 40.4539L43.6001 13.2166Z" fill="white"/>
<path opacity="0.8" d="M74.2434 71.5946L56.8975 40.5576H109.38L74.2434 71.5946Z" fill="white"/>
<path opacity="0.7" d="M56.8252 40.4537L74.2471 71.5817L74.1855 71.6373L21.1807 119.259L56.7129 40.4537H56.8252ZM108.159 41.4694L109.301 40.4537H109.305L108.159 41.4694Z" fill="white"/>
<path opacity="0.5" d="M56.667 40.528L18.4824 67.8014H18.4111L30.7705 40.4537H56.7012L56.667 40.528Z" fill="white"/>
<path opacity="0.8" d="M96.6006 13.2889L56.7783 40.5507H56.6973L69.5908 13.203H96.6416L96.6006 13.2889Z" fill="white"/>
<path opacity="0.9" d="M56.7427 40.4712L96.5728 13.2036H96.6479L83.7544 40.5513H56.7036L56.7427 40.4712Z" fill="white"/>
</svg>
